/* XPM */
static char *pirate1663114618[] = {
/* columns rows colors chars-per-pixel */
"32 32 87 1 ",
"  c #181425",
". c #FEA52D",
"X c #FEA62E",
"o c #FEA72E",
"O c #FEA82E",
"+ c #FEA82F",
"@ c #FEA930",
"# c #FEAA30",
"$ c #FEAA31",
"% c #FEAB32",
"& c #FEAC32",
"* c #FEAC33",
"= c #FEAD33",
"- c #FEAD34",
"; c #FEAE34",
": c #FEAF34",
"> c #FEAE35",
", c #FEAF35",
"< c #FEB036",
"1 c #FEB136",
"2 c #FEB137",
"3 c #FEB237",
"4 c #FEB438",
"5 c #FEB439",
"6 c #FEB53A",
"7 c #FEB73A",
"8 c #FEB63B",
"9 c #FEB83C",
"0 c #FEBA3E",
"q c #FEBB3E",
"w c #FEBC3F",
"e c #FEBD40",
"r c #FEBE41",
"t c #E4A672",
"y c #FEC042",
"u c #FEC043",
"i c #FEC143",
"p c #FEC344",
"a c #FEC345",
"s c #FEC546",
"d c #FEC647",
"f c #FEC848",
"g c #FECA4B",
"h c #FECD4C",
"j c #FECE4E",
"k c #FECF4E",
"l c #FED250",
"z c #FED251",
"x c #FED351",
"c c #FED553",
"v c #FED654",
"b c #FED855",
"n c #FED856",
"m c #FED956",
"M c #FEDA57",
"N c #FEDB57",
"B c #FEDC58",
"V c #FEDD59",
"C c #FEDF5B",
"Z c #FEE05B",
"A c #FEE05C",
"S c #FEE15C",
"D c #FEE25D",
"F c #FEE35D",
"G c #FEE35E",
"H c #FEE45F",
"J c #FEE55F",
"K c #FEE560",
"L c #FEE660",
"P c #FEE761",
"I c #FEE861",
"U c #FEE862",
"Y c #FEE962",
"T c #FEE963",
"R c #FEEA63",
"E c #FEEA64",
"W c #FEEB64",
"Q c #FEEB65",
"! c #FEEC65",
"~ c #FEED66",
"^ c #FEEE67",
"/ c #FEEF67",
"( c #FEF169",
") c #5A6988",
"_ c #8B9BB4",
"` c #EAD4AA",
"' c white",
/* pixels */
"PPPPPPPPPPPPPPPPPPPPPPPPPPPPPPPT",
"PPPPPPPPPPPPPPPPPPPPPPPPPPPPPTTh",
"PPPPPPPPPPPPPPPPPPPPPPPPPPPPTTh1",
"PPPPPPPPPPPPPPPPPPPPPPPPPPPTTh1.",
"PPPPPPPPPPPPPPPPPPPPPPPPPPTTh-.8",
"PPPPPPPPPPPPPPPPPPPPPPPPT~Tk-$6m",
"PPPPPPPPPPPPPPPPPPPPPPTTHHh-+6MT",
"PPPPPPPPPPPPPPPPPPPPPTPPf11+6BTT",
"PPPPPPPPPPP    P  JTWFiw1$+6mTTT",
"PPPPPPPPPP         /Hi&+$.7m~TTH",
"PPPPPPPPP     '''   p+++rfvTTTHT",
"PPPPPPPP     '''''   &wyB~TTHJTJ",
"PPPPPP       ' ' '    HWTJTJTJTJ",
"PPPPPT        '''     WTJTJTJTJT",
"PPPPPP        ' '     TJTJTJTJTJ",
"PPPT~c                JTJTJTJTJT",
"TTThs0$$& t``````` PPPPPPPPPPPPP",
"TTc1+&&&$ t`  ```  PPPPPPPPPPPPP",
"Hc1$&-$-w t`  ```  PPPPPPPPPPPPP",
"N1&-&&&iH t``````` PPPPPPPPPPPPP",
"m-&-3-iPT t``````` PPPPPPPPPPPPP",
"6&&&fZSTT t``````` PPPPPPPPPPPPP",
"+&-$k(TPP ________ PPPPPPPPPPPPP",
"&&$sZTTPP )))))))) PPPPPPPPPPPPP",
"&1pHTTJTP )))))))) PPPPPPPPPPPPP",
"$1Z~THTJP __    __ PPPPPPPPPPPPP",
"&0STJTJTP _ PPP _ PPPPPPPPPPPPPP",
"0ZTTTJTJP  PPPP  PPPPPPPPPPPPPPP",
"0TTTJTJTPPPPPPPPPPPPPPPPPPPPPPPP",
"mJTJTJTJPPPPPPPPPPPPPPPPPPPPPPPP",
"WTJTJTJTPPPPPPPPPPPPPPPPPPPPPPPP",
"JTTJTJTJPPPPPPPPPPPPPPPPPPPPPPPP"
};
