/* XPM */
static char *treasure1663055789[] = {
/* columns rows colors chars-per-pixel */
"32 32 94 2 ",
"   c #09021D",
".  c #0B041E",
"X  c #11001D",
"o  c #3A0000",
"O  c #000025",
"+  c #00002C",
"@  c #171325",
"#  c #181425",
"$  c #000032",
"%  c #3B0030",
"&  c #3A1335",
"*  c #39222C",
"=  c #392531",
"-  c #3D2732",
";  c #3F2832",
":  c #5E0034",
">  c #583235",
",  c #6F3D38",
"<  c #713E39",
"1  c #743F39",
"2  c #774039",
"3  c #3A3D48",
"4  c #004240",
"5  c #346045",
"6  c #4E4D53",
"7  c #4F4E53",
"8  c #427B53",
"9  c #437E55",
"0  c #B36D1F",
"q  c #B25A24",
"w  c #C07F2E",
"e  c #B86F50",
"r  c #00833E",
"t  c #469731",
"y  c #008862",
"u  c #008F65",
"i  c #448056",
"p  c #47855A",
"a  c #48885C",
"s  c #498A5D",
"d  c #469B5B",
"f  c #59995F",
"g  c #5D9C5E",
"h  c #629F5C",
"j  c #62A15C",
"k  c #68A45A",
"l  c #6BA65A",
"z  c #6DA759",
"x  c #77AD56",
"c  c #72AA58",
"v  c #7BB055",
"b  c #458D64",
"n  c #4B8F60",
"m  c #498F63",
"M  c #4A9063",
"N  c #4D9262",
"B  c #4E9262",
"V  c #4E9664",
"C  c #4F9665",
"Z  c #519461",
"A  c #529561",
"S  c #549660",
"D  c #509765",
"F  c #A99C1F",
"G  c #C2802F",
"H  c #F6A933",
"J  c #FFAF30",
"K  c #FEAE34",
"L  c #A99F48",
"P  c #80B453",
"I  c #C0AA4C",
"U  c #C2AC4C",
"Y  c #D0A44A",
"T  c #DBAA4A",
"R  c #DBAA4B",
"E  c #CAB64C",
"W  c #D7BD55",
"Q  c #FFEE53",
"!  c #DBD464",
"~  c #E0DB60",
"^  c #FEEB8C",
"/  c #FEEFA9",
"(  c #FFF9BD",
")  c #C0BDC1",
"_  c #C1BEC0",
"`  c #C2CDDE",
"'  c #E3C9C5",
"]  c #E4CAC5",
"[  c #D7E6DE",
"{  c #DCE7DE",
"}  c #DCECDC",
"|  c #E1EDDD",
" . c #FFF9E3",
".. c white",
/* pixels */
"N N N N N N N N N N N N N N N N N N N N N N N N N N N N N N N N ",
"N N N N N N N N N N N N N N N N N N N N N N C a 8 a V N N N N N ",
"N N N N N N N N N N N N N N N N N N N N N C p 9 p i p V N N N N ",
"N N N N N N N N N N N N N N N N N N N N N N C a 8 a C N N N N N ",
"N N N N N N N N N N N N N N N N N N N N N N N N N N N N N N N N ",
"N N N N N N N N N N N N N N N N N N N N N N N N N N N N N N N N ",
"N N N N N N N N N N N N N N N N N m x g N N N N N N N N N N N N ",
"N N N N N N N N N N N N N N N N N m c P h N N N N N N N N N N N ",
"N N N N b t } ' q e e e e e e e e e e e e e e q ' [ r s d N N Z ",
"N N N N b t | ) o 2 1 1 1 1 1 1 1 1 1 1 1 1 1 o ` { r f A N N N ",
"N N N N b d ~ I % 2 1 1 1 1 1 1 1 1 1 1 1 1 2 % I ! y s N N N N ",
"N N N N b t | ) o 2 1 1 1 1 1 1 1 1 1 1 1 1 2 o _ { r a N N N N ",
"N N N N N y ! U + > 2 1 1 1 1 1 1 , , < , < > + I ! y N N N N N ",
"N N N N N u T G $ ; ; ; ; ; ; ; > = - - = > - $ w T u N N N N N ",
"N N N N N u Y J K K K K K K H O O H K K K K K J J Y u N N N N N ",
"N N N N N D 5 X # # # # # . 7 ....6   # # # @ # X 5 D N N N N N ",
"v A N N N u T G $ - = > > * 3 ` ` 3 * ; ; ; ; $ G T u N N N N N ",
"N N N N N u T w & < , 1 , , = @ @ = , 1 2 < 2 & w T u N N N N N ",
"N N N N N y ! U % 2 1 1 , , < - - < 1 1 < 2 2 % I ! y N N N N N ",
"N N N N N y ! U % 2 1 < < , 1 1 1 1 1 1 2 < 2 % U ! y N N N N N ",
"N N N N N D 4 E W : 1 1 1 1 1 1 1 1 1 1 1 1 : W E 4 D N N N N N ",
"N N N N N u T 0 L Q / ..................^  .( F 0 T u N N N N N ",
"N N N N N u T 0 L Q / ..................^  .( F 0 T u N N N N N ",
"N N N N N N N N N M 9 i D N N N N N N N N N N N N N N N N N N N ",
"N N N N N N N N N N N N N N N N N N N N N N N N N M A k l b N N ",
"N N N N N N N N N N N N N N N N N N N N N N N b S l j j l b N N ",
"N N N N N N N N N N N N N N N N N N N N N N N m g z j j l b N N ",
"N N N N N N N N N N N N N N N N N N N N N N N b S c h b N N N N ",
"N N N N N N N N N N N N N N N N N N N N N N N N N N N N N N N N ",
"N N N N N N N N N N N M N g x m N N N N N N N N N N N N N N N N ",
"N N N N N N N N N N N N h c A v N N N N N N N N N N N N N N N N ",
"N N N N N N N N N N N M N g x M N N N N N N N N N N N N N N N N "
};
