/* XPM */
static char *x1663055704[] = {
/* columns rows colors chars-per-pixel */
"32 32 147 2 ",
"   c #CE0101",
".  c #CF010A",
"X  c #CF090D",
"o  c #D30303",
"O  c #D2020B",
"+  c #D40B0C",
"@  c #CF140F",
"#  c #D0100F",
"$  c #CE0A10",
"%  c #CF001A",
"&  c #D30012",
"*  c #D00E13",
"=  c #D1001F",
"-  c #D20D1D",
";  c #CF1413",
":  c #D41314",
">  c #D0141A",
",  c #D21B1A",
"<  c #D00021",
"1  c #D21E22",
"2  c #D31C2D",
"3  c #D32424",
"4  c #D32A25",
"5  c #D32829",
"6  c #D9362F",
"7  c #D62D39",
"8  c #D53B35",
"9  c #D5313B",
"0  c #D83E3B",
"q  c #D44137",
"w  c #D9483B",
"e  c #DB5737",
"r  c #DD663F",
"t  c #D54642",
"y  c #D64942",
"u  c #D94A42",
"i  c #DB4A48",
"p  c #D75147",
"a  c #D9544C",
"s  c #DA5E4F",
"d  c #DA5353",
"f  c #DA5E53",
"g  c #DD6544",
"h  c #DE6943",
"j  c #DD634E",
"k  c #DD6D4B",
"l  c #DC7346",
"z  c #DB6452",
"x  c #DE6A52",
"c  c #DC655A",
"v  c #DE6D5A",
"b  c #DC7754",
"n  c #DE745C",
"m  c #E16C47",
"M  c #E07657",
"N  c #E17D5A",
"B  c #DB7362",
"V  c #DE7A62",
"C  c #FEA92D",
"Z  c #FEAE34",
"A  c #FEAF39",
"S  c #FEB036",
"D  c #FEB339",
"F  c #EA875A",
"G  c #E6895E",
"H  c #FDB547",
"J  c #FEBD42",
"K  c #F6AF59",
"L  c #FAA959",
"P  c #FEB75A",
"I  c #E38563",
"U  c #E48C65",
"Y  c #E28869",
"T  c #E79063",
"R  c #E89662",
"E  c #E2936B",
"W  c #E79B6D",
"Q  c #E68D74",
"!  c #E79673",
"~  c #E99B77",
"^  c #E59878",
"/  c #EBAB75",
"(  c #E9A47C",
")  c #EAAF78",
"_  c #EFBB7C",
"`  c #F3B379",
"'  c #FEC546",
"]  c #FEDC57",
"[  c #FEE55E",
"{  c #FFE95E",
"}  c #FAC567",
"|  c #F7CC6C",
" . c #FEDC61",
".. c #F7D16D",
"X. c #FAD76A",
"o. c #FADA6C",
"O. c #F4C774",
"+. c #F9CD76",
"@. c #F3C67D",
"#. c #F3CB7B",
"$. c #F7D376",
"%. c #F8D276",
"&. c #F6D17F",
"*. c #FADD7E",
"=. c #FEE761",
"-. c #FEE963",
";. c #FDE56B",
":. c #FEEA6B",
">. c #FCE573",
",. c #FEEB74",
"<. c #FBE47B",
"1. c #FDEB7B",
"2. c #E59B92",
"3. c #E9A385",
"4. c #ECAB80",
"5. c #EBB381",
"6. c #EDBD83",
"7. c #EEB58F",
"8. c #F3B380",
"9. c #F0BD8D",
"0. c #E9B297",
"q. c #EEBC94",
"w. c #EFBD9A",
"e. c #F0C485",
"r. c #F0C68B",
"t. c #F1CD8B",
"y. c #F7D283",
"u. c #F6D981",
"i. c #F9DD84",
"p. c #F4D28B",
"a. c #F7DB8A",
"s. c #F9DF8F",
"d. c #EEC293",
"f. c #EBC89C",
"g. c #F3CD93",
"h. c #F3CB9A",
"j. c #F5D493",
"k. c #F8D693",
"l. c #F6DC91",
"z. c #F4D39C",
"x. c #FCE580",
"c. c #FDEB83",
"v. c #FBE58D",
"b. c #FCE395",
"n. c #FAE993",
"m. c #EBC2A2",
"M. c #F6F2CA",
/* pixels */
"=.=.=.=.=.=.=.=.=.=.=.=.=.=.=.=.=.=.=.=.=.=.=.=.=.=.=.=.=.=.=.Z ",
"=.=.=.=.=.=.<._ p.<.=.=.=.=.=.=.=.=.=.=.=.=.=.=.=.=.=.,.a.) i.A ",
"=.=.=.=.[ :.p.n Q s.,.=.=.=.=.=.=.=.=.=.=.=.=.=.=.=.;.v.~ s 8.H ",
"=.=.=.=.,.g.x : o c t.>.=.=.=.=.=.=.=.=.=.=.=.=.=.;.t.v : * w ` ",
"=.=.=.:.j.s O : +   t U ..=.=.=.=.=.=.=.=.=.=.=.X.R u o + ,   w ",
"=.=.:.b.k * + : : + o o N O.=.=.=.=.=.[ =.=.=.| G o o # : : + o ",
"=.{ >.k ; o : + o : : o   z @.,.=.[ =.[ =.,.y.v   o : : o o : o ",
"=.=.| e ; + o + + o + : :   2 ) c.:.{ :.1._ 2   X : o o + + + + ",
"=.=.;.h.2.c 5   X : * o + : o = ( v.:.x.5.% o + # o + : + o , c ",
"=.=.=.,.c.n.d.c $ o : : o o + o 4 0.M.m.3 o : + o : :   ; f g.x.",
"=.=.=.=.=.=.,.b.3.t o + : + o o o 6 a 0 o o o o : +   q 4.u.;.:.",
"=.=.=.=.=.=.[ :.x.g.n O o : + o o o + o o o + : + + z k.1.=.=.=.",
"=.=.=.=.=.=.=.=.{ ,.a.Y -   + + o + + + o o # o , V s.:.=.=.=.=.",
"=.=.=.=.=.=.=.=.=.=.:.v.E 1   + o o + o o + o 3 I i.=.=.=.=.=.=.",
"=.=.=.=.=.=.=.=.=.=.-.' K G 6   + o o o + O 3 I n.{ =.=.=.=.=.=.",
"=.=.=.=.=.=.=.:.J Z Z Z C P F   o + o + + o b v.=.{ =.=.=.=.=.=.",
"=.=.=.{ =.=.J Z Z Z Z Z S L h o o o o + o o l *.=.=.=.=.=.=.=.=.",
"=.=.=.-.D Z Z Z Z Z C  .+.k   + + o o o + + O r } =.=.=.=.=.=.=.",
"=.=.:.D Z Z Z Z Z C  .y.M o + + o + : + o + : o g y.=.[ =.=.=.=.",
"=.=.S S Z Z Z C ] :.p.n o + + + : + o + # + + + : x a.:.=.=.=.=.",
"=.=.D S Z Z C ] ,.l.V & + + + + o 0 d 0 o O + + + ; x j.:.=.=.=.",
"=.S Z S C [ =.1.z.B . X # o + o & T r.W O o + o + + * z z.,.=.=.",
"=.S Z Z C ] c.z.v . + : o + +   N %.{ X.U o o + o + # X a h.1.=.",
"=.S S C [ c.f.f   : : o o +   z O.,.[ :.%.x   + + o : :   y f.c.",
"Z Z Z [ c.q.p o : : o + + o 9 ` 1.=.=.=.,.@.7   + + o : : o 8 w.",
"Z Z Z %.! 8 o * : o + + o o / 1.=.=.=.=.=.>._ o o + o o : + o 3 ",
"S C o.m @ o : : o o +   o M ..:.=.=.=.=.=.=.X.G o o + o o : : o ",
"Z Z :.&.N 4   + + : o   z #.:.[ =.=.=.=.=.=.:.$.c   o : # +   : ",
"Z =.=.=.<.9.a   + :   t e.1.{ =.=.=.=.=.=.=.[ ;.p.i   : + o 0 7.",
"Z =.=.=.=.1.j.B >   < 5.<.=.=.=.=.=.=.=.=.=.=.-.>.6.%   # f h.1.",
"=.=.=.=.=.=.:.p.n o ^ i.:.{ =.=.=.=.=.=.=.=.=.=.=.<.3.o j j.:.=.",
"=.=.=.=.=.{ [ { i.4.y.:.[ =.=.=.=.=.=.=.=.=.=.=.=.;.i.( a.{ =.=."
};
